<svg viewBox="0 0 529 538" xmlns="http://www.w3.org/2000/svg" xml:space="preserve" style="fill-rule:evenodd;clip-rule:evenodd;stroke-linejoin:round;stroke-miterlimit:2">
  <path style="fill:none" d="M-50.664-45.687h1452.17V551.66H-50.664z" transform="matrix(.3636 0 0 .90001 18.422 41.118)"/>
  <path d="M874.986 1931.79c-99.461-105.98-159.999-247.91-159.999-408.35 0-345.2 511.523-771.841 625.453-771.841 113.94 0 625.46 426.641 625.46 771.841 0 280.18-184.64 503.94-438.77 578.29 61.01-77.09 99.19-185.1 99.19-298.99 0-217.6-154.46-374.77-326.15-374.77-86.84 0-161.56 45.2-214.21 118.02v-98.52H874.986v484.32Zm368.134-339.18c84.36 0 152.85 95.61 152.85 213.38s-68.49 213.38-152.85 213.38-155-93.45-155-211.21c0-122.1 70.64-215.55 155-215.55Z" style="fill:#005afe" transform="matrix(.36901 0 0 .36672 -229.946 -256.66)"/>
</svg>
