<?xml version="1.0" encoding="UTF-8" standalone="no"?>
<!DOCTYPE svg PUBLIC "-//W3C//DTD SVG 1.1//EN" "http://www.w3.org/Graphics/SVG/1.1/DTD/svg11.dtd">
<svg width="100%" height="100%" viewBox="0 0 1374 533" version="1.1" xmlns="http://www.w3.org/2000/svg" xmlns:xlink="http://www.w3.org/1999/xlink" xml:space="preserve" xmlns:serif="http://www.serif.com/" style="fill-rule:evenodd;clip-rule:evenodd;stroke-linejoin:round;stroke-miterlimit:2;">
    <g id="Artboard1" transform="matrix(0.945626,0,0,0.890805,47.9096,40.6979)">
        <rect x="-50.664" y="-45.687" width="1452.17" height="597.347" style="fill:none;"/>
        <g transform="matrix(0.39023,0,0,0.411671,-293.832,-333.809)">
            <path d="M874.986,1931.79C775.525,1825.81 714.987,1683.88 714.987,1523.44C714.987,1178.24 1226.51,751.599 1340.44,751.599C1454.38,751.599 1965.9,1178.24 1965.9,1523.44C1965.9,1803.62 1781.26,2027.38 1527.13,2101.73C1588.14,2024.64 1626.32,1916.63 1626.32,1802.74C1626.32,1585.14 1471.86,1427.97 1300.17,1427.97C1213.33,1427.97 1138.61,1473.17 1085.96,1545.99L1085.96,1447.47L874.986,1447.47L874.986,1931.79ZM1243.12,1592.61C1327.48,1592.61 1395.97,1688.22 1395.97,1805.99C1395.97,1923.76 1327.48,2019.37 1243.12,2019.37C1158.76,2019.37 1088.12,1925.92 1088.12,1808.16C1088.12,1686.06 1158.76,1592.61 1243.12,1592.61Z" style="fill:rgb(0,90,254);"/>
        </g>
        <g transform="matrix(1.32046,0,0,1.40173,-342.939,-174.966)">
            <g transform="matrix(150,0,0,150,693.788,420.787)">
                <path d="M0.139,-0.257C0.139,-0.382 0.201,-0.478 0.314,-0.478C0.415,-0.478 0.49,-0.405 0.491,-0.275C0.496,-0.145 0.438,-0.04 0.314,-0.04C0.205,-0.04 0.139,-0.14 0.139,-0.257ZM0.139,-0.083C0.177,-0.02 0.251,0.014 0.324,0.014C0.482,0.014 0.555,-0.115 0.555,-0.26C0.555,-0.413 0.488,-0.532 0.321,-0.532C0.255,-0.532 0.176,-0.495 0.141,-0.427L0.139,-0.427L0.139,-0.518L0.079,-0.518L0.079,0.204L0.139,0.204L0.139,-0.083Z" style="fill:rgb(0,90,254);fill-rule:nonzero;"/>
            </g>
            <g transform="matrix(150,0,0,150,785.438,420.787)">
                <path d="M0.141,-0L0.141,-0.518L0.081,-0.518L0.081,-0L0.141,-0ZM0.144,-0.631L0.144,-0.72L0.078,-0.72L0.078,-0.631L0.144,-0.631Z" style="fill:rgb(0,90,254);fill-rule:nonzero;"/>
            </g>
            <g transform="matrix(150,0,0,150,818.738,420.787)">
                <path d="M0.409,-0L0.481,-0L0.287,-0.268L0.474,-0.518L0.398,-0.518L0.251,-0.312L0.108,-0.518L0.034,-0.518L0.217,-0.268L0.018,-0L0.091,-0L0.252,-0.224L0.409,-0Z" style="fill:rgb(0,90,254);fill-rule:nonzero;"/>
            </g>
            <g transform="matrix(150,0,0,150,893.738,420.787)">
                <path d="M0.109,-0.295C0.121,-0.393 0.177,-0.478 0.283,-0.478C0.391,-0.478 0.447,-0.396 0.447,-0.295L0.109,-0.295ZM0.511,-0.245C0.512,-0.431 0.425,-0.532 0.283,-0.532C0.135,-0.532 0.045,-0.408 0.045,-0.257C0.045,-0.104 0.117,0.014 0.283,0.014C0.415,0.014 0.477,-0.061 0.507,-0.159L0.44,-0.159C0.422,-0.083 0.361,-0.04 0.283,-0.04C0.168,-0.04 0.108,-0.133 0.109,-0.245L0.511,-0.245Z" style="fill:rgb(0,90,254);fill-rule:nonzero;"/>
            </g>
            <g transform="matrix(150,0,0,150,977.138,420.787)">
                <rect x="0.081" y="-0.72" width="0.06" height="0.72" style="fill:rgb(0,90,254);fill-rule:nonzero;"/>
            </g>
            <g transform="matrix(150,0,0,150,1010.44,420.787)">
                <path d="M0.139,-0.261C0.139,-0.378 0.205,-0.478 0.314,-0.478C0.438,-0.478 0.496,-0.373 0.491,-0.243C0.49,-0.113 0.415,-0.04 0.314,-0.04C0.201,-0.04 0.139,-0.136 0.139,-0.261ZM0.139,-0.091L0.141,-0.091C0.176,-0.023 0.255,0.014 0.321,0.014C0.488,0.014 0.555,-0.105 0.555,-0.258C0.555,-0.403 0.482,-0.532 0.324,-0.532C0.251,-0.532 0.177,-0.498 0.139,-0.435L0.139,-0.72L0.079,-0.72L0.079,-0L0.139,-0L0.139,-0.091Z" style="fill:rgb(0,90,254);fill-rule:nonzero;"/>
            </g>
            <g transform="matrix(150,0,0,150,1102.09,420.787)">
                <path d="M0.411,-0.191C0.411,-0.086 0.317,-0.04 0.222,-0.04C0.165,-0.04 0.11,-0.07 0.11,-0.133C0.11,-0.203 0.165,-0.236 0.256,-0.243C0.308,-0.247 0.36,-0.251 0.411,-0.272L0.411,-0.191ZM0.227,-0.291C0.106,-0.275 0.046,-0.222 0.046,-0.135C0.046,-0.035 0.128,0.014 0.219,0.014C0.294,0.014 0.362,-0.016 0.412,-0.072C0.413,-0.036 0.42,-0.001 0.46,0.005C0.469,0.007 0.477,0.008 0.487,0.008C0.504,0.008 0.525,0.001 0.534,-0.002L0.534,-0.049C0.483,-0.031 0.471,-0.042 0.471,-0.089L0.471,-0.371C0.471,-0.491 0.388,-0.532 0.283,-0.532C0.17,-0.532 0.079,-0.483 0.07,-0.361L0.131,-0.361C0.142,-0.451 0.199,-0.478 0.282,-0.478C0.375,-0.478 0.411,-0.434 0.411,-0.373C0.411,-0.355 0.409,-0.328 0.389,-0.319C0.369,-0.31 0.332,-0.304 0.31,-0.302L0.227,-0.291Z" style="fill:rgb(0,90,254);fill-rule:nonzero;"/>
            </g>
            <g transform="matrix(150,0,0,150,1185.49,420.787)">
                <path d="M0.254,-0.047C0.238,-0.043 0.221,-0.04 0.205,-0.04C0.155,-0.04 0.153,-0.062 0.153,-0.113L0.153,-0.468L0.25,-0.468L0.25,-0.518L0.153,-0.518L0.153,-0.662L0.093,-0.662L0.093,-0.518L0.02,-0.518L0.02,-0.468L0.093,-0.468L0.093,-0.089C0.093,-0.012 0.126,0.014 0.185,0.014C0.214,0.014 0.24,0.005 0.254,0.002L0.254,-0.047Z" style="fill:rgb(0,90,254);fill-rule:nonzero;"/>
            </g>
            <g transform="matrix(150,0,0,150,1227.19,420.787)">
                <path d="M0.132,-0L0.132,-0.279C0.132,-0.315 0.133,-0.344 0.145,-0.377C0.164,-0.43 0.215,-0.478 0.289,-0.478C0.385,-0.478 0.423,-0.431 0.423,-0.338L0.423,-0L0.483,-0L0.483,-0.339C0.483,-0.382 0.482,-0.421 0.457,-0.458C0.42,-0.512 0.362,-0.532 0.299,-0.532C0.227,-0.532 0.18,-0.497 0.132,-0.446L0.132,-0.72L0.072,-0.72L0.072,-0L0.132,-0Z" style="fill:rgb(0,90,254);fill-rule:nonzero;"/>
            </g>
        </g>
    </g>
</svg>
